# xmcd
#
# Track frame offsets:
#	150
#	13998
#	29121
#	39669
#	54492
#	67965
#	80463
#	94386
#	107259
#	120357
#	132555
#	142728
#	153425
#	172147
#	186145
#	200668
#	211741
#	225589
#	241312
#	254935
#	268633
#	278881
#	291079
#
# Disc length: 4001 seconds
#
# Revision: 1
# Processed by: cddbd v1.5.2PL0 Copyright (c) Steve Scherf et al.
# Submitted via: audiograbber 1.83.01
#
DISCID=570f9f17
DTITLE=Dionne Warwick - Make Way For - The Sensitive Sound Of Dionne Warwick
DYEAR=1996
DGENRE=Soul
TTITLE0=A House Is Not A Home
TTITLE1=People
TTITLE2=(They Long To Be) Close To You
TTITLE3=The Last One To Be Loved
TTITLE4=Land Of Make Believe
TTITLE5=Reach Out For Me
TTITLE6=You'll Never Get To Heaven (If You Break My Heart)
TTITLE7=Walk On By
TTITLE8=Wishin' And Hopin'
TTITLE9=I Smiled Yesterday
TTITLE10=Get Rid Of Him
TTITLE11=Make The Night A Little Longer
TTITLE12=Unchained Melody [Unedited]
TTITLE13=Who Can I Turn To (When Nobody Needs Me)
TTITLE14=How Many Days Of Sadness
TTITLE15=Is There Another Way To Love You
TTITLE16=Where Can I Go Without You
TTITLE17=You Can Have Him
TTITLE18=Wives And Lovers
TTITLE19=Don't Say I Didn't Tell You So
TTITLE20=Only The Strong, Only The Brave
TTITLE21=Forever My Love
TTITLE22=That's Not The Answer
EXTD=
EXTT0=
EXTT1=
EXTT2=
EXTT3=
EXTT4=
EXTT5=
EXTT6=
EXTT7=
EXTT8=
EXTT9=
EXTT10=
EXTT11=
EXTT12=
EXTT13=
EXTT14=
EXTT15=
EXTT16=
EXTT17=
EXTT18=
EXTT19=
EXTT20=
EXTT21=
EXTT22=
PLAYORDER=
